<svg xmlns="http://www.w3.org/2000/svg" xmlns:xlink="http://www.w3.org/1999/xlink" version="1.1" x="0px" y="0px" width="27.843px" height="27.408px" viewBox="0 0 27.843 27.408" style="enable-background:new 0 0 27.843 27.408;" xml:space="preserve">
<path style="fill:#000000;" d="M0 27.408h27.843V8.391H0V27.408z M8.526 18.699c0.854 0 2.2 0 2.2 0s0-0.372 0-0.938 c0-1.752 0-5.16 0-6.462c0 0-0.01-0.305 0.385-0.305c0.396 0 4.9 0 5.4 0s0.459 0.4 0.5 0.365c0 1.3 0 4.6 0 6.4 c0 0.6 0 1 0 1.045s1.695 0 2.4 0c0.702 0 0.1 0.6 0.1 0.612l-5.292 5.148c0 0-0.352 0.409-0.718 0 c-0.505-0.505-5.162-5.316-5.162-5.316S7.67 18.7 8.5 18.699z"/>
<polygon style="fill:#000000;" points="13.1,0 2.4,0 0.2,7.3 12.6,7.3"/>
<polygon style="fill:#000000;" points="27.8,7.3 25.3,0 14.7,0 15.4,7.3"/>
<g>
</g>
<g>
</g>
<g>
</g>
<g>
</g>
<g>
</g>
<g>
</g>
<g>
</g>
<g>
</g>
<g>
</g>
<g>
</g>
<g>
</g>
<g>
</g>
<g>
</g>
<g>
</g>
<g>
</g>
</svg>
